<svg xmlns="http://www.w3.org/2000/svg" version="1.1" xmlns:xlink="http://www.w3.org/1999/xlink" xmlns:svgjs="http://svgjs.dev/svgjs" width="1500" height="363" viewBox="0 0 1500 363"><g transform="matrix(1,0,0,1,-0.9090909090909918,0.08175678071677339)"><svg viewBox="0 0 396 96" data-background-color="#ffffff" preserveAspectRatio="xMidYMid meet" height="363" width="1500" xmlns="http://www.w3.org/2000/svg" xmlns:xlink="http://www.w3.org/1999/xlink"><g id="tight-bounds" transform="matrix(1,0,0,1,0.2400000000000091,-0.021621627958154477)"><svg viewBox="0 0 395.52 96.04324325591628" height="96.04324325591628" width="395.52"><g><svg viewBox="0 0 527.6766359991174 128.1345456910569" height="96.04324325591628" width="395.52"><g transform="matrix(1,0,0,1,132.15663599911736,17.70889886178862)"><svg viewBox="0 0 395.52 92.71674796747966" height="92.71674796747966" width="395.52"><g id="textblocktransform"><svg viewBox="0 0 395.52 92.71674796747966" height="92.71674796747966" width="395.52" id="textblock"><g><svg viewBox="0 0 395.52 92.71674796747966" height="92.71674796747966" width="395.52"><g transform="matrix(1,0,0,1,0,0)"><svg width="395.52" viewBox="2.45 -34.25 147.59 34.6" height="92.71674796747966" data-palette-color="#3d405b"><path d="M24.6-25.6L24.6-7.5Q24.6-4.65 23.9-2.98 23.2-1.3 21.98-0.65 20.75 0 18.75 0L18.75 0Q15.8 0 14.48-1.58 13.15-3.15 13.1-7.15L13.1-7.15 13-25.6 8.75-25.6Q5.6-25.6 4.03-26.6 2.45-27.6 2.45-30.15L2.45-30.15Q2.45-31.7 3.08-32.6 3.7-33.5 4.95-33.88 6.2-34.25 8.3-34.25L8.3-34.25 29.7-34.25Q32.5-34.25 33.75-33.25 35-32.25 35-29.8L35-29.8Q35-28.15 34.27-27.23 33.55-26.3 32.35-25.95 31.15-25.6 29.25-25.6L29.25-25.6 24.6-25.6ZM51.8-27.25L51.8-6.8Q53.1-6.8 54.07-7.08 55.05-7.35 55.92-8.08 56.8-8.8 57.35-10 57.9-11.2 58.22-13.08 58.55-14.95 58.55-17.5L58.55-17.5Q58.55-20.35 58.05-22.33 57.55-24.3 56.6-25.33 55.65-26.35 54.52-26.78 53.4-27.2 51.8-27.25L51.8-27.25ZM45.95-34.2L53.3-34.2Q61.1-34.2 65.82-29.7 70.55-25.2 70.55-17.3L70.55-17.3Q70.55-14.75 70.07-12.35 69.6-9.95 68.5-7.68 67.4-5.4 65.75-3.73 64.1-2.05 61.55-1.03 59 0 55.8 0L55.8 0 45.95 0Q42.9 0 41.57-1.55 40.25-3.1 40.25-7.15L40.25-7.15 40.25-28.25Q40.25-34.2 45.95-34.2L45.95-34.2ZM93.25-7.7L93.25-7.7 87.09-14.25Q86.14-13.8 85.47-13 84.8-12.2 84.8-11.3L84.8-11.3Q84.8-10.05 85.47-9.1 86.14-8.15 87.27-7.68 88.39-7.2 89.75-7.2L89.75-7.2Q91.64-7.2 93.25-7.7ZM77.39-26.4L77.39-26.4Q77.39-28.95 79.12-30.78 80.84-32.6 83.57-33.4 86.3-34.2 89.8-34.2L89.8-34.2Q92.59-34.2 94.94-33.68 97.3-33.15 98.94-32.15 100.59-31.15 101.52-29.68 102.44-28.2 102.44-26.4L102.44-26.4Q102.44-21.75 98.3-18.85L98.3-18.85Q100.84-15.7 103.64-12.5L103.64-12.5Q104.55-14.35 105.55-16.5L105.55-16.5Q106-17.55 106.72-17.88 107.44-18.2 108.82-18.2 110.19-18.2 111.02-17.5 111.84-16.8 111.84-15.5L111.84-15.5Q111.84-13.8 111.02-11.3 110.19-8.8 109.15-7L109.15-7Q109.55-6.25 110.67-5.43 111.8-4.6 112.65-3.93 113.5-3.25 113.5-2.55L113.5-2.55Q113.5-1.55 112.69-0.6 111.9 0.35 109.94 0.35L109.94 0.35Q108.15 0.35 106.9-0.05 105.65-0.45 104.47-1.23 103.3-2 103.05-2.1L103.05-2.1Q96 0.35 89.3 0.35L89.3 0.35Q85.75 0.35 82.94-0.38 80.14-1.1 78.42-2.2 76.69-3.3 75.52-4.78 74.34-6.25 73.89-7.68 73.44-9.1 73.44-10.5L73.44-10.5Q73.44-13.85 75.37-16.32 77.3-18.8 80.25-20L80.25-20Q77.39-22.65 77.39-26.4ZM92.05-26.45L92.05-26.45Q92.05-27.4 91.82-28.13 91.59-28.85 91.09-29.28 90.59-29.7 89.89-29.7L89.89-29.7Q88.84-29.7 88.27-28.78 87.69-27.85 87.69-26.4L87.69-26.4Q87.69-24.9 88.27-23.78 88.84-22.65 89.89-22.65 90.94-22.65 91.5-23.78 92.05-24.9 92.05-26.45ZM150.04-29.95L150.04-4.75Q150.04-2.55 148.74-1.28 147.44 0 144.94 0L144.94 0Q144.29 0 143.64-0.15 142.99-0.3 142.27-0.7 141.54-1.1 140.99-1.45 140.44-1.8 139.62-2.53 138.79-3.25 138.32-3.68 137.84-4.1 136.84-5.05 135.84-6 135.39-6.45L135.39-6.45 126.24-15.1 126.24-4.25Q126.24-1.8 125.32-0.9 124.39 0 122.39 0L122.39 0Q120.19 0 119.14-1 118.09-2 118.09-4.35L118.09-4.35 118.09-28.5Q118.09-31.35 119.54-32.8 120.99-34.25 123.69-34.25L123.69-34.25Q125.54-34.25 126.67-33.68 127.79-33.1 129.34-31.6L129.34-31.6 141.99-19 141.99-29.9Q141.99-32.05 143.07-33.13 144.14-34.2 145.99-34.2L145.99-34.2Q148.14-34.2 149.09-33.2 150.04-32.2 150.04-29.95L150.04-29.95Z" opacity="1" transform="matrix(1,0,0,1,0,0)" fill="#3d405b" class="wordmark-text-0" data-fill-palette-color="primary" id="text-0"></path></svg></g></svg></g></svg></g></svg></g><g><svg viewBox="0 0 110.26843700594662 128.1345456910569" height="128.1345456910569" width="110.26843700594662"><g><svg xmlns="http://www.w3.org/2000/svg" xmlns:xlink="http://www.w3.org/1999/xlink" version="1.1" x="0" y="0" viewBox="2.96217666004358 2.78719752817596 64.08128218807998 74.46397358499999" enable-background="new 0 0 70 80" xml:space="preserve" height="128.1345456910569" width="110.26843700594662" class="icon-icon-0" data-fill-palette-color="accent" id="icon-0"><path d="M24.6 71.4c-5.4-0.2-8.1-0.3-13.6-0.7-0.7 0-1.2-0.6-1.3-1.3-1.1-19.7-1.1-39.5 0-59.2 0-0.7 0.6-1.2 1.3-1.3 16.1-1.2 32.3-1.2 48.4 0 0.7 0.1 1.2 0.6 1.3 1.3 0.6 10 0.9 20.1 0.8 30.1 0 0 0 0.8 0.5 1.5 1.5 1.5 2.3 2.2 3.8 3.7 1.4 1.3 1.2-0.8 1.2-0.8 0.2-12.7-0.3-25.5-1.3-38.2-0.1-1.3-1.2-2.5-2.4-2.6C44.1 2.4 25.6 2.4 6.4 4 5.2 4.1 4.2 5.3 4.1 6.6 2.6 28.8 2.6 50.7 4 73c0.1 1.3 1.2 2.5 2.4 2.6 9.1 1 13.6 1.3 22.7 1.5 0 0 2.6 0.1 1.1-1.5-1.3-1.3-1.9-2-3.2-3.3C27.1 72.3 26.3 71.5 24.6 71.4z" fill="#3d405b" data-fill-palette-color="accent"></path><path d="M26.9 65.9c-0.6-0.6-0.6-1.7 0-2.3 1.6-1.6 2.3-2.4 3.9-4 0.6-0.6 1.6-0.6 2.2 0 2.6 2.6 3.9 3.9 6.4 6.5 0.6 0.6 1.6 0.6 2.2 0 0 0 14.8-15.9 18-18.1 0.7-0.5 1.7-0.6 2.3-0.1 1.6 1.5 2.4 2.2 3.9 3.7 0.6 0.6 0.6 1.5-0.1 2.2C58.3 61.1 51 68.5 43.9 76c-1.9 1.6-5.4 1.7-7 0.1C33 72.1 31 70 26.9 65.9z" fill="#3d405b" data-fill-palette-color="accent"></path><path d="M55 20.7c0 0.7-0.5 1.2-1.2 1.2-12.6-0.4-25.3-0.4-37.9 0-0.7 0-1.2-0.5-1.2-1.2 0-1 0-1.5 0.1-2.4 0-0.7 0.6-1.2 1.3-1.3 12.5-0.5 25.1-0.5 37.6 0 0.7 0 1.2 0.6 1.3 1.3C55 19.3 55 19.8 55 20.7z" fill="#3d405b" data-fill-palette-color="accent"></path><path d="M55.2 32.2c0 0.7-0.5 1.2-1.2 1.2-12.8-0.1-25.5-0.1-38.3 0-0.7 0-1.2-0.5-1.2-1.2 0-1 0-1.5 0-2.4 0-0.7 0.6-1.2 1.2-1.2 12.7-0.3 25.4-0.3 38.2 0 0.7 0 1.2 0.6 1.2 1.2C55.2 30.8 55.2 31.3 55.2 32.2z" fill="#3d405b" data-fill-palette-color="accent"></path><path d="M55.3 43.7c0 0.7-0.6 1.2-1.2 1.2-12.8 0.1-25.5 0.1-38.3 0-0.7 0-1.2-0.6-1.2-1.2 0-1 0-1.5 0-2.4 0-0.7 0.6-1.2 1.2-1.2 12.8 0 25.6 0 38.3 0 0.7 0 1.2 0.5 1.2 1.2C55.3 42.3 55.3 42.8 55.3 43.7z" fill="#3d405b" data-fill-palette-color="accent"></path></svg></g></svg></g></svg></g><defs></defs></svg><rect width="395.52" height="96.04324325591628" fill="none" stroke="none" visibility="hidden"></rect></g></svg></g></svg>